<svg width="24" height="24" viewBox="0 0 24 24" fill="none" xmlns="http://www.w3.org/2000/svg">
<path d="M18.9419 5.88516C17.6472 5.31608 16.2629 4.90247 14.8158 4.66699C14.638 4.96889 14.4303 5.37494 14.2872 5.69797C12.7487 5.48061 11.2244 5.48061 9.71429 5.69797C9.57116 5.37494 9.35876 4.96889 9.17947 4.66699C7.73067 4.90247 6.34479 5.31759 5.05016 5.88817C2.43887 9.59549 1.73099 13.2107 2.08493 16.7746C3.81688 17.9898 5.49534 18.7279 7.14548 19.2109C7.55291 18.6841 7.91628 18.1241 8.22933 17.5339C7.63314 17.3211 7.06211 17.0584 6.52255 16.7535C6.6657 16.6539 6.8057 16.5497 6.94099 16.4426C10.2319 17.8886 13.8074 17.8886 17.059 16.4426C17.1958 16.5497 17.3358 16.6539 17.4774 16.7535C16.9362 17.0599 16.3637 17.3226 15.7674 17.5354C16.0805 18.1241 16.4423 18.6857 16.8513 19.2124C18.503 18.7294 20.183 17.9913 21.915 16.7746C22.3303 12.6432 21.2055 9.06112 18.9419 5.88516ZM8.67765 14.5829C7.68977 14.5829 6.87963 13.7164 6.87963 12.6613C6.87963 11.6061 7.67246 10.7382 8.67765 10.7382C9.68285 10.7382 10.4929 11.6046 10.4756 12.6613C10.4773 13.7164 9.68285 14.5829 8.67765 14.5829ZM15.3223 14.5829C14.3344 14.5829 13.5242 13.7164 13.5242 12.6613C13.5242 11.6061 14.3171 10.7382 15.3223 10.7382C16.3274 10.7382 17.1376 11.6046 17.1203 12.6613C17.1203 13.7164 16.3274 14.5829 15.3223 14.5829Z" fill="#1E1E1E"/>
</svg>
