<svg  viewBox="0 0 18 18" fill="none" xmlns="http://www.w3.org/2000/svg">
<path d="M17.0977 0.726562L10.0781 5.89453L11.3789 2.84766L17.0977 0.726562Z" fill="#E27625"/>
<path d="M0.890625 0.726562L7.85156 5.94141L6.60938 2.84766L0.890625 0.726562Z" fill="#E27625"/>
<path d="M14.5781 12.7148L12.7031 15.5508L16.7109 16.6523L17.8594 12.7734L14.5781 12.7148Z" fill="#E27625"/>
<path d="M0.152344 12.7734L1.28906 16.6523L5.28516 15.5508L3.42188 12.7148L0.152344 12.7734Z" fill="#E27625"/>
<path d="M5.07422 7.91016L3.96094 9.58594L7.92187 9.76172L7.79297 5.51953L5.07422 7.91016Z" fill="#E27625"/>
<path d="M12.9258 7.91016L10.1602 5.47266L10.0781 9.76172L14.0391 9.58594L12.9258 7.91016Z" fill="#E27625"/>
<path d="M5.28516 15.5508L7.6875 14.4023L5.61328 12.8086L5.28516 15.5508Z" fill="#E27625"/>
<path d="M10.3125 14.4023L12.7031 15.5508L12.375 12.8086L10.3125 14.4023Z" fill="#E27625"/>
<path d="M12.7031 15.5508L10.3125 14.4023L10.5117 15.9492L10.4883 16.6055L12.7031 15.5508Z" fill="#D7C1B3"/>
<path d="M5.28516 15.5508L7.51172 16.6055L7.5 15.9492L7.6875 14.4023L5.28516 15.5508Z" fill="#D7C1B3"/>
<path d="M7.54688 11.7773L5.56641 11.2031L6.97266 10.5586L7.54688 11.7773Z" fill="#2F343B"/>
<path d="M10.4414 11.7773L11.0273 10.5586L12.4336 11.2031L10.4414 11.7773Z" fill="#2F343B"/>
<path d="M5.28516 15.5508L5.63672 12.7148L3.42188 12.7734L5.28516 15.5508Z" fill="#CC6228"/>
<path d="M12.3633 12.7148L12.7031 15.5508L14.5781 12.7734L12.3633 12.7148Z" fill="#CC6228"/>
<path d="M14.0391 9.58594L10.0781 9.76172L10.4414 11.7773L11.0273 10.5586L12.4336 11.2031L14.0391 9.58594Z" fill="#CC6228"/>
<path d="M5.56641 11.2031L6.97266 10.5586L7.54687 11.7773L7.92187 9.76172L3.96094 9.58594L5.56641 11.2031Z" fill="#CC6228"/>
<path d="M3.96094 9.58594L5.61328 12.8086L5.56641 11.2031L3.96094 9.58594Z" fill="#E27625"/>
<path d="M12.4336 11.2031L12.375 12.8086L14.0391 9.58594L12.4336 11.2031Z" fill="#E27625"/>
<path d="M7.92187 9.76172L7.54688 11.7773L8.01562 14.168L8.12109 11.0273L7.92187 9.76172Z" fill="#E27625"/>
<path d="M10.0781 9.76172L9.87891 11.0156L9.97266 14.168L10.4414 11.7773L10.0781 9.76172Z" fill="#E27625"/>
<path d="M10.4414 11.7773L9.97266 14.168L10.3125 14.4023L12.375 12.8086L12.4336 11.2031L10.4414 11.7773Z" fill="#F5841F"/>
<path d="M5.56641 11.2031L5.61328 12.8086L7.6875 14.4023L8.01563 14.168L7.54688 11.7773L5.56641 11.2031Z" fill="#F5841F"/>
<path d="M10.4883 16.6055L10.5117 15.9492L10.3242 15.7969H7.66406L7.5 15.9492L7.51172 16.6055L5.28516 15.5508L6.05859 16.1836L7.64063 17.2734H10.3477L11.9297 16.1836L12.7031 15.5508L10.4883 16.6055Z" fill="#C0AD9E"/>
<path d="M10.3125 14.4023L9.97266 14.168H8.01563L7.6875 14.4023L7.5 15.9492L7.66406 15.7969H10.3242L10.5117 15.9492L10.3125 14.4023Z" fill="#2F343B"/>
<path d="M17.4023 6.23438L17.9883 3.375L17.0977 0.726562L10.3125 5.71875L12.9258 7.91016L16.6172 8.98828L17.4258 8.03906L17.0742 7.78125L17.6367 7.27734L17.2031 6.9375L17.7656 6.51562L17.4023 6.23438Z" fill="#763E1A"/>
<path d="M0 3.375L0.597656 6.23438L0.222656 6.51562L0.785156 6.94922L0.351562 7.27734L0.914063 7.78125L0.5625 8.03906L1.38281 8.98828L5.07422 7.91016L7.6875 5.71875L0.890625 0.726562L0 3.375Z" fill="#763E1A"/>
<path d="M16.6172 8.98828L12.9258 7.91016L14.0391 9.58594L12.375 12.8086L14.5781 12.7734H17.8594L16.6172 8.98828Z" fill="#F5841F"/>
<path d="M5.07422 7.91016L1.38281 8.98828L0.152344 12.7734H3.42187L5.61328 12.8086L3.96094 9.58594L5.07422 7.91016Z" fill="#F5841F"/>
<path d="M10.0781 9.76172L10.3125 5.71875L11.3789 2.84766H6.60938L7.6875 5.71875L7.92187 9.76172L8.01562 11.0273V14.168H9.97266L9.98438 11.0273L10.0781 9.76172Z" fill="#F5841F"/>
</svg>
